<svg width="542" height="230" xmlns="http://www.w3.org/2000/svg" xmlns:xlink="http://www.w3.org/1999/xlink" xmlns:svgjs="http://svgjs.com/svgjs" viewBox="150 3592 542 230"><svg width="297" height="128" xmlns="http://www.w3.org/2000/svg" xmlns:xlink="http://www.w3.org/1999/xlink" xmlns:svgjs="http://svgjs.com/svgjs" viewBox="395 3663 297 128" x="395" y="3663"><svg width="34" height="50" xmlns="http://www.w3.org/2000/svg" xmlns:xlink="http://www.w3.org/1999/xlink" xmlns:svgjs="http://svgjs.com/svgjs" viewBox="0 0.242 34 49.517" fill="#433586" x="396" y="3663"><svg xmlns="http://www.w3.org/2000/svg" xmlns:xlink="http://www.w3.org/1999/xlink" width="34" height="50" viewBox="0.036 0.497 33.929 49.413"><path paint-order="stroke fill markers" fill-rule="evenodd" d="M20.261 7.283l-5.203 42.628h-7.38l5.205-42.628H.036L.892.497h33.073l-.857 6.786H20.261z"/></svg></svg><svg width="31" height="50" xmlns="http://www.w3.org/2000/svg" xmlns:xlink="http://www.w3.org/1999/xlink" xmlns:svgjs="http://svgjs.com/svgjs" viewBox="0.064 0 30.873 50" fill="#433586" x="429" y="3663"><svg xmlns="http://www.w3.org/2000/svg" xmlns:xlink="http://www.w3.org/1999/xlink" width="31" height="50" viewBox="0.308 0.497 30.511 49.413"><path paint-order="stroke fill markers" fill-rule="evenodd" d="M18.624 22.437c-3.427 0-5.93.923-7.84 1.91L7.686 49.911H.308L6.368.497h7.38l-2.24 18.118c2.767-1.515 5.731-2.437 9.092-2.437 8.367 0 10.87 4.15 10.08 10.476l-2.832 23.257h-7.38l2.767-22.598c.396-3.36-1.12-4.876-4.611-4.876z"/></svg></svg><svg width="30" height="35" xmlns="http://www.w3.org/2000/svg" xmlns:xlink="http://www.w3.org/1999/xlink" xmlns:svgjs="http://svgjs.com/svgjs" viewBox="0.113 0 29.774 35" fill="#433586" x="464" y="3679"><svg xmlns="http://www.w3.org/2000/svg" xmlns:xlink="http://www.w3.org/1999/xlink" width="30" height="35" viewBox="0.604 0.178 29.369 34.523"><path paint-order="stroke fill markers" fill-rule="evenodd" d="M8 20.141c-.461 4.941.922 8.17 7.643 8.17 4.15 0 7.642-.726 10.739-1.977l-.79 6.325c-3.953 1.581-8.302 2.042-11.86 2.042C2.729 34.701-.433 28.114.885 17.44 2.203 6.833 6.88.178 17.75.178c9.685 0 12.848 4.546 12.123 10.212-.66 5.666-4.875 9.751-14.56 9.751H8zm7.84-5.14c3.887 0 6.458-1.25 6.852-4.216.33-2.965-1.976-4.217-5.863-4.217-5.402 0-7.314 3.493-8.17 8.433h7.181z"/></svg></svg><svg width="36" height="50" xmlns="http://www.w3.org/2000/svg" xmlns:xlink="http://www.w3.org/1999/xlink" xmlns:svgjs="http://svgjs.com/svgjs" fill="#433586" x="511" y="3663"><svg xmlns="http://www.w3.org/2000/svg" xmlns:xlink="http://www.w3.org/1999/xlink" width="36" height="50" viewBox="0.005 0.497 35.578 49.413"><path paint-order="stroke fill markers" fill-rule="evenodd" d="M30.048 27.971H10.019l-2.635 21.94H.005L6.066.497h29.517l-.857 6.786H12.588l-1.712 13.902h20.028l-.856 6.786z"/></svg></svg><svg width="31" height="35" xmlns="http://www.w3.org/2000/svg" xmlns:xlink="http://www.w3.org/1999/xlink" xmlns:svgjs="http://svgjs.com/svgjs" viewBox="0.613 0 29.774 35" fill="#433586" x="545" y="3679"><svg xmlns="http://www.w3.org/2000/svg" xmlns:xlink="http://www.w3.org/1999/xlink" width="31" height="35" viewBox="0.906 0.178 29.369 34.523"><path paint-order="stroke fill markers" fill-rule="evenodd" d="M8.303 20.141c-.462 4.941.922 8.17 7.643 8.17 4.15 0 7.642-.726 10.739-1.977l-.791 6.325c-3.953 1.581-8.302 2.042-11.86 2.042-11.002 0-14.165-6.587-12.847-17.261C2.505 6.833 7.183.178 18.054.178c9.684 0 12.847 4.546 12.122 10.212-.659 5.666-4.875 9.751-14.56 9.751H8.303zm7.84-5.14c3.887 0 6.456-1.25 6.852-4.216.33-2.965-1.976-4.217-5.863-4.217-5.403 0-7.314 3.493-8.17 8.433h7.18z"/></svg></svg><svg width="25" height="34" xmlns="http://www.w3.org/2000/svg" xmlns:xlink="http://www.w3.org/1999/xlink" xmlns:svgjs="http://svgjs.com/svgjs" viewBox="0.647 0 23.706 34" fill="#433586" x="578" y="3679"><svg xmlns="http://www.w3.org/2000/svg" xmlns:xlink="http://www.w3.org/1999/xlink" width="25" height="34" viewBox="0.736 0.178 23.52 33.733"><path paint-order="stroke fill markers" fill-rule="evenodd" d="M23.465 6.898c-.79-.263-2.043-.395-3.558-.395-3.887 0-6.917.922-8.698 1.976L8.114 33.91H.736L4.754.968h4.347l.858 2.636c2.7-1.976 6.523-3.426 10.805-3.426 1.383 0 2.57.197 3.491.396l-.79 6.324z"/></svg></svg><svg width="24" height="44" xmlns="http://www.w3.org/2000/svg" xmlns:xlink="http://www.w3.org/1999/xlink" xmlns:svgjs="http://svgjs.com/svgjs" viewBox="0.188 0 23.625 44" fill="#433586" x="603" y="3670"><svg xmlns="http://www.w3.org/2000/svg" xmlns:xlink="http://www.w3.org/1999/xlink" width="24" height="44" viewBox="0.311 0.02 23.454 43.681"><path paint-order="stroke fill markers" fill-rule="evenodd" d="M18.692 43.24c-1.186.263-3.031.461-4.15.461-7.314 0-11.202-3.162-10.344-10.278l2.108-17.195H.311l.593-4.546 6.192-1.714.989-7.84L15.66.02l-1.186 9.948h9.29l-.79 6.26h-9.29l-1.976 16.338c-.396 3.294 1.054 4.876 4.81 4.876 1.119 0 2.107-.132 2.898-.263l-.725 6.061z"/></svg></svg><svg width="14" height="49" xmlns="http://www.w3.org/2000/svg" xmlns:xlink="http://www.w3.org/1999/xlink" xmlns:svgjs="http://svgjs.com/svgjs" viewBox="0.44 0 13.12 49" fill="#433586" x="629" y="3665"><svg xmlns="http://www.w3.org/2000/svg" xmlns:xlink="http://www.w3.org/1999/xlink" width="14" height="49" viewBox="0.406 0.408 12.842 47.963"><path paint-order="stroke fill markers" fill-rule="evenodd" d="M.532 39.807l3.03-24.839h7.38L7.91 39.741c-.264 1.844.329 2.503 2.437 2.503l-.724 5.996s-.659.131-1.45.131c-5.994 0-8.366-2.898-7.642-8.564zM8.438.407c2.636 0 4.81 2.175 4.81 4.81 0 2.636-2.174 4.81-4.81 4.81-2.635 0-4.81-2.174-4.81-4.81 0-2.635 2.175-4.81 4.81-4.81z"/></svg></svg><svg width="13" height="51" xmlns="http://www.w3.org/2000/svg" xmlns:xlink="http://www.w3.org/1999/xlink" xmlns:svgjs="http://svgjs.com/svgjs" viewBox="0.069 0 12.863 51" fill="#433586" x="646" y="3663"><svg xmlns="http://www.w3.org/2000/svg" xmlns:xlink="http://www.w3.org/1999/xlink" width="13" height="51" viewBox="0.338 0.497 12.579 49.874"><path paint-order="stroke fill markers" fill-rule="evenodd" d="M.464 41.807L5.537.497h7.38L7.843 41.741c-.264 1.844.33 2.503 2.437 2.503l-.725 5.996s-.658.131-1.448.131c-5.996 0-8.368-2.898-7.643-8.564z"/></svg></svg><svg width="30" height="35" xmlns="http://www.w3.org/2000/svg" xmlns:xlink="http://www.w3.org/1999/xlink" xmlns:svgjs="http://svgjs.com/svgjs" viewBox="0.113 0 29.774 35" fill="#433586" x="662" y="3679"><svg xmlns="http://www.w3.org/2000/svg" xmlns:xlink="http://www.w3.org/1999/xlink" width="30" height="35" viewBox="0.522 0.178 29.369 34.523"><path paint-order="stroke fill markers" fill-rule="evenodd" d="M7.918 20.141c-.46 4.941.922 8.17 7.643 8.17 4.15 0 7.642-.726 10.74-1.977l-.791 6.325c-3.953 1.581-8.302 2.042-11.86 2.042C2.647 34.701-.515 28.114.803 17.44 2.12 6.833 6.798.178 17.669.178c9.685 0 12.848 4.546 12.123 10.212-.658 5.666-4.875 9.751-14.56 9.751H7.918zm7.84-5.14c3.887 0 6.458-1.25 6.852-4.216.33-2.965-1.976-4.217-5.863-4.217-5.402 0-7.314 3.493-8.17 8.433h7.181z"/></svg></svg><svg width="38" height="52" xmlns="http://www.w3.org/2000/svg" xmlns:xlink="http://www.w3.org/1999/xlink" xmlns:svgjs="http://svgjs.com/svgjs" viewBox="0.306 0 37.388 52" fill="#433586" x="395" y="3723"><svg xmlns="http://www.w3.org/2000/svg" xmlns:xlink="http://www.w3.org/1999/xlink" width="38" height="52" viewBox="0.598 0.648 36.476 50.731"><path paint-order="stroke fill markers" fill-rule="evenodd" d="M1.036 26.013C2.748 11.981 8.81.648 23.568.648c6.852 0 10.937 1.384 13.506 2.767l-.593 4.48C31.606 5.789 28.378 4.8 23.04 4.8c-10.805 0-15.812 9.29-17.262 21.214C4.264 37.94 7.031 47.228 17.836 47.228c3.755 0 8.433-.329 10.87-1.449l2.042-16.866H20.405l.527-4.15h14.824l-2.964 23.915c-3.558 1.581-8.565 2.7-15.483 2.7-14.758 0-18.052-11.331-16.273-25.365z"/></svg></svg><svg width="24" height="34" xmlns="http://www.w3.org/2000/svg" xmlns:xlink="http://www.w3.org/1999/xlink" xmlns:svgjs="http://svgjs.com/svgjs" viewBox="0.766 0 22.467 34" fill="#433586" x="436" y="3740"><svg xmlns="http://www.w3.org/2000/svg" xmlns:xlink="http://www.w3.org/1999/xlink" width="24" height="34" viewBox="0.817 0.119 22.204 33.601"><path paint-order="stroke fill markers" fill-rule="evenodd" d="M22.493 4.731c-.987-.33-2.24-.527-3.887-.527-4.48 0-7.247.725-9.817 2.108L5.429 33.72H.817L4.836.778h2.57l.658 2.767C11.424 1.24 15.378.12 19.068.12c1.515 0 2.7.132 3.953.33l-.528 4.282z"/></svg></svg><svg width="30" height="35" xmlns="http://www.w3.org/2000/svg" xmlns:xlink="http://www.w3.org/1999/xlink" xmlns:svgjs="http://svgjs.com/svgjs" viewBox="0.506 0 28.989 35" fill="#433586" x="461" y="3740"><svg xmlns="http://www.w3.org/2000/svg" xmlns:xlink="http://www.w3.org/1999/xlink" width="30" height="35" viewBox="0.701 0.119 28.376 34.26"><path paint-order="stroke fill markers" fill-rule="evenodd" d="M12.778 34.379C1.512 34.379-.2 27.33 1.051 17.249 2.302 7.17 5.729.12 16.995.12c11.331 0 12.98 7.05 11.728 17.13C27.47 27.33 24.11 34.38 12.778 34.38zm3.756-30.175c-8.697 0-9.949 5.6-10.871 13.045-.922 7.445-1.054 13.045 7.642 13.045 8.565 0 9.884-5.6 10.805-13.045.922-7.445.989-13.045-7.576-13.045z"/></svg></svg><svg width="29" height="35" xmlns="http://www.w3.org/2000/svg" xmlns:xlink="http://www.w3.org/1999/xlink" xmlns:svgjs="http://svgjs.com/svgjs" viewBox="0.057 0 28.886 35" fill="#433586" x="496" y="3740"><svg xmlns="http://www.w3.org/2000/svg" xmlns:xlink="http://www.w3.org/1999/xlink" width="29" height="35" viewBox="0.318 0.778 27.731 33.601"><path paint-order="stroke fill markers" fill-rule="evenodd" d="M4.99 24.694c-.528 4.283 1.844 5.6 5.93 5.6 4.282 0 6.521-.725 9.157-2.109L23.437.778h4.612L24.03 33.72H21.46l-.658-2.767c-3.427 2.306-6.918 3.426-10.41 3.426-7.84 0-10.74-3.557-9.948-9.882L3.343.777h4.611L4.99 24.695z"/></svg></svg><svg width="33" height="51" xmlns="http://www.w3.org/2000/svg" xmlns:xlink="http://www.w3.org/1999/xlink" xmlns:svgjs="http://svgjs.com/svgjs" viewBox="0.374 0 32.252 51" fill="#433586" x="526" y="3740"><svg xmlns="http://www.w3.org/2000/svg" xmlns:xlink="http://www.w3.org/1999/xlink" width="33" height="51" viewBox="0.553 0.119 31.665 50.072"><path paint-order="stroke fill markers" fill-rule="evenodd" d="M7.405 31.678L5.165 50.19H.553L6.615.778h2.57l.657 2.701C13.532 1.306 16.96.12 20.516.12c10.607 0 12.584 7.643 11.398 17.13-1.119 9.489-5.007 17.13-15.614 17.13-3.031 0-6.259-.856-8.895-2.701zm19.897-14.429c.792-6.522.66-13.045-7.248-13.045-4.28 0-6.785.725-9.487 2.108l-2.7 21.873c2.371 1.384 4.676 2.109 8.96 2.109 7.906 0 9.685-6.522 10.475-13.045z"/></svg></svg></svg><svg width="197" height="230" xmlns="http://www.w3.org/2000/svg" xmlns:xlink="http://www.w3.org/1999/xlink" xmlns:svgjs="http://svgjs.com/svgjs" viewBox="150 3592 197 230" x="150" y="3592"><svg width="197" height="230" xmlns="http://www.w3.org/2000/svg" xmlns:xlink="http://www.w3.org/1999/xlink" xmlns:svgjs="http://svgjs.com/svgjs" viewBox="0 0.09 197 229.821" fill="#23a0b6" x="150" y="3592"><svg xmlns="http://www.w3.org/2000/svg" xmlns:xlink="http://www.w3.org/1999/xlink" width="197" height="230" viewBox="0 0 196.415 229.138"><path paint-order="stroke fill markers" fill-rule="evenodd" d="M104.975 76.805c7.118 1.745 14.623 5.097 21.61 11.741 15.401 14.91 12.243 42.742-6.15 53.489-23.94 14.066-57.95-2.585-64.126-29.111C48.773 88.546 66.865 61.42 91.461 56.85c23.153-4.135 47.64 5.06 64.209 21.33 21.574 20.678 29.247 54.115 18.962 82.193-8.352 24.54-30.39 43.585-55.664 49.054-26.609 5.93-55.694-2.994-75.146-21.902-26.227-24.568-34.036-66.93-16.733-98.68 8.707-17.793 25.793-30.226 32.268-49.271 4.435-11.754 4.497-25.668-2.64-36.593-.47-.723-1.232-1.456-1.93-1.975C53.873.391 52.849 0 51.69 0a5.328 5.328 0 0 0-5.328 5.328c0 .49.087.954.21 1.404l.728 2.577c1.91 6.576 3.496 13.311.765 19.926-7.346 20.704-26.635 33.846-36.784 52.89-17.249 31.588-14.31 72.588 6.013 102.08 16.514 24.569 44.239 41.192 73.676 44.24 29.629 3.699 60.78-7.565 80.913-29.684 17.93-19.29 26.391-46.441 24.188-72.533-2.421-36.812-28.975-70.303-63.991-81.621-21.847-7.155-47.858-7.291-67.037 6.883-23.371 15.917-32.268 49.244-19.89 74.684 12.38 27.778 48.075 42.795 76.262 30.797 19.915-8.434 31.37-31.233 27.18-52.318-3.374-21.874-24.54-38.743-46.497-37.981a7.249 7.249 0 0 0-1.846.316c-1.947.621-3.55 2.26-3.55 4.428 0 2.266 1.664 4.13 3.835 4.472l4.437.917z"/></svg></svg><svg width="23" height="23" xmlns="http://www.w3.org/2000/svg" xmlns:xlink="http://www.w3.org/1999/xlink" xmlns:svgjs="http://svgjs.com/svgjs" viewBox="0 0 23 22.999" fill="#433586" x="237" y="3707"><svg xmlns="http://www.w3.org/2000/svg" width="23" height="23" viewBox="0.205 0.723 22.004 22.003"><path paint-order="stroke fill markers" fill-rule="evenodd" d="M11.207 22.726A10.992 10.992 0 0 1 .205 11.724 10.992 10.992 0 0 1 11.207.723 10.992 10.992 0 0 1 22.21 11.724a10.992 10.992 0 0 1-11.002 11.002z"/></svg></svg></svg></svg>