<svg width="239" height="179" xmlns="http://www.w3.org/2000/svg" xmlns:xlink="http://www.w3.org/1999/xlink" xmlns:svgjs="http://svgjs.com/svgjs" viewBox="853 3618 239 179"><svg width="69" height="179" xmlns="http://www.w3.org/2000/svg" xmlns:xlink="http://www.w3.org/1999/xlink" xmlns:svgjs="http://svgjs.com/svgjs" viewBox="0.006 0 68.989 179" fill="#006ab6" x="1023" y="3618"><svg xmlns="http://www.w3.org/2000/svg" xmlns:xlink="http://www.w3.org/1999/xlink" width="69" height="179" viewBox="0.135 0 68.646 178.111"><path paint-order="stroke fill markers" fill-rule="evenodd" d="M18.437 1.82c30.072 17.4 50.345 49.943 50.345 87.236 0 37.293-20.273 69.837-50.345 87.234-13.959 8.077-26.073-12.861-12.114-20.938 22.904-13.25 38.267-37.987 38.267-66.296 0-28.31-15.363-53.045-38.267-66.296-13.96-8.077-1.845-29.016 12.114-20.94z"/></svg></svg><svg width="81" height="90" xmlns="http://www.w3.org/2000/svg" xmlns:xlink="http://www.w3.org/1999/xlink" xmlns:svgjs="http://svgjs.com/svgjs" viewBox="0.159 0 80.682 90" fill="#006ab6" x="895" y="3662"><svg xmlns="http://www.w3.org/2000/svg" xmlns:xlink="http://www.w3.org/1999/xlink" width="81" height="90" viewBox="0.587 0.653 79.836 89.056"><path paint-order="stroke fill markers" fill-rule="evenodd" d="M40.504 89.71c-8.43 0-10.498-3.825-13.42-10.327L2.137 19.926c-1.205-3.1-1.55-4.992-1.55-7.229C.587 4.78 6.78.653 13.493.653c6.882 0 9.809 4.989 11.012 8.775l16 44.314L56.505 9.428C57.708 5.642 60.635.653 67.518.653c6.71 0 12.905 4.127 12.905 12.044 0 2.237-.344 4.13-1.55 7.229L53.924 79.383c-2.92 6.502-4.988 10.326-13.42 10.326z"/></svg></svg><svg width="26" height="90" xmlns="http://www.w3.org/2000/svg" xmlns:xlink="http://www.w3.org/1999/xlink" xmlns:svgjs="http://svgjs.com/svgjs" viewBox="0.479 0 25.042 90" fill="#006ab6" x="993" y="3662"><svg xmlns="http://www.w3.org/2000/svg" xmlns:xlink="http://www.w3.org/1999/xlink" width="26" height="90" viewBox="0.282 0.653 24.778 89.053"><path paint-order="stroke fill markers" fill-rule="evenodd" d="M25.06 75.94c0 8.26-5.162 13.766-12.387 13.766C5.443 89.706.282 84.2.282 75.94V14.42C.282 6.159 5.444.653 12.672.653 19.899.653 25.06 6.16 25.06 14.42V75.94z"/></svg></svg><svg width="25" height="90" xmlns="http://www.w3.org/2000/svg" xmlns:xlink="http://www.w3.org/1999/xlink" xmlns:svgjs="http://svgjs.com/svgjs" viewBox="0 0.076 25 89.847" fill="#006ab6" x="853" y="3662"><svg xmlns="http://www.w3.org/2000/svg" width="25" height="90" viewBox="0 0.402 24.779 89.053"><path paint-order="stroke fill markers" fill-rule="evenodd" d="M24.779 75.69c0 8.26-5.163 13.765-12.388 13.765C5.16 89.455 0 83.95 0 75.69V14.168C0 5.908 5.162.402 12.39.402c7.226 0 12.389 5.506 12.389 13.766V75.69z"/></svg></svg></svg>