<svg width="90" height="90" xmlns="http://www.w3.org/2000/svg" xmlns:xlink="http://www.w3.org/1999/xlink" xmlnsSvgjs="http://svgjs.com/svgjs" viewBox="0 0.754 113 120.493" fill="#b8cdf5"><svg xmlns="http://www.w3.org/2000/svg" width="113" height="122" viewBox="0 0.754 113 120.493" xmlns:xlink="http://www.w3.org/1999/xlink" xmlnsSvgjs="http://svgjs.com/svgjs" fill="#b8cdf5"><path paint-order="stroke fill markers" fill-rule="evenodd" d="M54.58 120.166a12.927 12.927 0 0 1-5.312-3.778 12.912 12.912 0 0 1-3.128-13.193c-1.813-4.081-9.627-15.791-31.547-32.08C3.929 63.19-1.243 51.408.75 39.594 2.66 28.3 10.798 19.099 21.997 15.579c5.813-1.82 19.482-4.032 36.005 7.15C68.795 9.372 82.47-2.618 96.547 1.932c6.268 2.052 16.792 8.989 16.369 32.712-.544 30.183-18.304 76.818-50.241 85.875a12.795 12.795 0 0 1-8.096-.352zM37.675 40.927c-3.3-1.257-6.018-1.369-7.95-.763-1.94.616-3.271 2.003-3.564 3.718-.357 2.133.995 4.457 3.805 6.542 9.199 6.84 28.079 22.002 37.18 37.452 4.815-5.22 9.297-12.65 12.91-21.644 6.107-15.178 7.589-29.334 6.969-36.808-3.309 2.812-8.666 8.381-16.247 19.301a12.893 12.893 0 0 1-9.492 5.495 12.87 12.87 0 0 1-10.29-3.814c-4.997-5.091-9.538-8.035-13.32-9.479z"></path></svg></svg>