<svg width="90" height="90" xmlns="http://www.w3.org/2000/svg" xmlns:xlink="http://www.w3.org/1999/xlink" xmlnsSvgjs="http://svgjs.com/svgjs" viewBox="0.262 0 113.475 121" fill="#e5b1b5"><svg xmlns="http://www.w3.org/2000/svg" width="114" height="121" viewBox="0.262 0 113.475 121" xmlns:xlink="http://www.w3.org/1999/xlink" xmlnsSvgjs="http://svgjs.com/svgjs" fill="#e5b1b5"><path paint-order="stroke fill markers" fill-rule="evenodd" d="M54.709 119.218a12.934 12.934 0 0 1-5.312-3.778 12.912 12.912 0 0 1-3.128-13.193c-1.813-4.082-9.627-15.792-31.547-32.08C4.058 62.24-1.113 50.458.88 38.644 2.789 27.352 10.927 18.15 22.126 14.63c5.813-1.82 19.482-4.031 36.005 7.151C68.925 8.422 82.599-3.567 96.676.982c6.268 2.053 16.792 8.989 16.369 32.712-.544 30.184-18.304 76.818-50.241 85.876a12.795 12.795 0 0 1-8.095-.352zM37.806 39.979c-3.3-1.257-6.019-1.37-7.95-.764-1.94.616-3.272 2.003-3.564 3.718-.358 2.133.994 4.458 3.804 6.543 9.199 6.84 28.079 22.002 37.18 37.451 4.815-5.22 9.297-12.649 12.91-21.644 6.108-15.178 7.589-29.334 6.969-36.808-3.308 2.812-8.665 8.381-16.247 19.301a12.891 12.891 0 0 1-9.492 5.495 12.87 12.87 0 0 1-10.29-3.813c-4.997-5.092-9.538-8.036-13.32-9.479z"></path></svg></svg>