<svg width="60" height="60" xmlns="http://www.w3.org/2000/svg" xmlns:xlink="http://www.w3.org/1999/xlink" viewBox="0.008 0 135.983 145" fill="#fff"><svg xmlns="http://www.w3.org/2000/svg" width="136" height="145" viewBox="0.008 0 135.983 145" xmlns:xlink="http://www.w3.org/1999/xlink" fill="#fff"><path paint-order="stroke fill markers" fill-rule="evenodd" d="M65.32 143.547a15.557 15.557 0 0 1-6.396-4.549c-4.216-4.205-5.59-10.4-3.766-15.885-2.183-4.915-11.591-19.014-37.985-38.628C4.333 74.942-1.894 60.756.506 46.532c2.298-13.599 12.097-24.677 25.582-28.916 6.999-2.192 23.457-4.854 43.352 8.61C82.436 10.14 98.902-4.295 115.851 1.183c7.548 2.471 20.22 10.823 19.71 39.387-.655 36.343-22.04 92.495-60.494 103.4a15.402 15.402 0 0 1-9.747-.423zm-20.353-95.41c-3.973-1.514-7.247-1.648-9.572-.919-2.337.741-3.94 2.412-4.291 4.477-.431 2.568 1.196 5.367 4.58 7.877 11.076 8.237 33.809 26.493 44.767 45.095 5.798-6.284 11.195-15.23 15.546-26.061 7.353-18.276 9.136-35.32 8.39-44.32-3.983 3.386-10.433 10.092-19.563 23.24a15.526 15.526 0 0 1-11.427 6.617c-4.604.385-9.153-1.278-12.39-4.592-6.018-6.13-11.486-9.676-16.04-11.414z"></path></svg></svg>