<?xml version="1.0" standalone="no"?>
<!DOCTYPE svg PUBLIC "-//W3C//DTD SVG 20010904//EN"
"http://www.w3.org/TR/2001/REC-SVG-20010904/DTD/svg10.dtd">
<svg version="1.0" xmlns="http://www.w3.org/2000/svg"
    width="70" height="0" viewBox="0 0 512.000000 512.000000"
    preserveAspectRatio="xMidYMid meet">

    <g transform="translate(0.000000,512.000000) scale(0.100000,-0.100000)"
    fill="#ffffff" stroke="#fffff" stroke-width="30">
        <path d="M1215 4954 c-287 -42 -473 -116 -671 -270 -326 -253 -519 -664 -541
        -1154 -15 -342 64 -656 242 -965 195 -339 504 -664 1124 -1184 101 -85 201
        -177 224 -205 87 -109 134 -261 123 -396 -13 -164 -60 -255 -214 -415 -64 -66
        -135 -140 -157 -163 l-40 -44 275 5 c227 4 295 8 390 26 414 79 847 244 1260
        480 959 549 1613 1334 1815 2175 171 714 41 1343 -359 1741 -189 187 -387 292
        -666 351 -121 26 -391 26 -515 0 -383 -80 -712 -312 -906 -638 -18 -32 -36
        -58 -39 -58 -3 0 -21 26 -39 58 -93 156 -262 335 -408 432 -147 97 -325 171
        -494 205 -72 15 -344 28 -404 19z m292 -305 c43 -6 127 -26 186 -46 387 -128
        666 -476 710 -884 l11 -109 146 0 146 0 11 109 c64 600 627 1027 1219 926 230
        -40 399 -129 560 -297 287 -299 387 -759 284 -1309 -147 -784 -729 -1527
        -1614 -2062 -263 -158 -630 -326 -891 -406 -110 -33 -308 -82 -313 -76 -2 2 6
        32 17 68 63 204 47 426 -43 622 -73 159 -130 220 -496 532 -700 596 -985 954
        -1094 1375 -81 313 -51 682 80 967 71 155 208 324 337 415 207 147 480 211
        744 175z"/>
    </g>
</svg>
